#!OML:ASF H:\Terrain\Patient Classification 1\Takeo\Monday\TakeoMonday.ASF
:FULLY-SPECIFIED
:DEGREES
1032
root 18.888 16.2189 -2.86483 -148.362 -70.8093 152.934
lowerback 19.6156 -0.464616 0.585957
upperback 7.8164 -1.12156 0.388782
thorax -2.5466 -0.815653 0.329291
lowerneck -4.04661 19.6215 10.4107
upperneck -3.94261 26.363 -21.8628
head 3.84619 12.8966 -6.03812
rclavicle -1.59028e-015 -2.06736e-014
rhumerus -16.7481 -19.769 -14.7138
rradius 83.3085
rwrist -29.4333
rhand -40.5352 33.9026
rfingers 7.12502
rthumb -13.4836 4.35908
lclavicle -1.59028e-015 -2.06736e-014
lhumerus -14.5371 3.20121 75.793
lradius 70.4801
lwrist 21.4041
lhand -29.316 15.4421
lfingers 7.12502
lthumb -2.65691 45.4053
rfemur -39.4553 -5.66368 9.82481
rtibia 61.6863
rfoot -23.5894 -1.89308
rtoes -17.7792
lfemur -25.3945 33.8681 -17.5053
ltibia 53.9626
lfoot -22.8447 26.477
ltoes 11.7638
1033
root 18.9185 16.144 -2.8642 -148.382 -70.7669 153.182
lowerback 19.9172 -0.700185 0.825457
upperback 7.99946 -1.41019 0.426101
thorax -2.50707 -0.9661 0.298431
lowerneck -3.43804 19.6499 10.7789
upperneck -4.71889 26.3731 -23.0037
head 3.75288 12.9605 -6.46725
rclavicle -1.66979e-014 -3.02153e-014
rhumerus -17.5776 -20.7801 -14.437
rradius 83.4989
rwrist -29.819
rhand -40.5703 33.5741
rfingers 7.12502
rthumb -13.5175 4.03285
lclavicle -1.66979e-014 -3.02153e-014
lhumerus -13.9533 3.30886 75.4913
lradius 70.6332
lwrist 21.1232
lhand -28.235 14.8271
lfingers 7.12502
lthumb -1.61285 44.8007
rfemur -40.4371 -5.6661 9.98276
rtibia 62.7521
rfoot -23.8311 -1.94046
rtoes -17.8012
lfemur -26.4621 34.0984 -17.5792
ltibia 55.2493
lfoot -22.9431 26.4283
ltoes 11.0327
1034
root 18.9418 16.0904 -2.86248 -148.286 -70.6353 153.348
lowerback 20.0767 -0.953138 1.03464
upperback 8.20628 -1.72879 0.459027
thorax -2.36987 -1.13157 0.283718
lowerneck -3.00304 19.9167 10.7202
upperneck -5.09892 26.7383 -23.3917
head 3.68239 13.1888 -6.56148
rclavicle 5.56597e-015 -4.13472e-014
rhumerus -18.1292 -21.7727 -14.3581
rradius 83.5921
rwrist -29.9171
rhand -40.949 34.7291
rfingers 7.12502
rthumb -13.8825 5.21247
lclavicle 5.56597e-015 -4.13472e-014
lhumerus -13.0977 3.74595 75.4015
lradius 70.441
lwrist 20.8735
lhand -26.4455 14.0624
lfingers 7.12502
lthumb 0.11545 44.0421
rfemur -41.3828 -5.70228 10.0578
rtibia 63.7551
rfoot -24.1367 -1.73959
rtoes -17.0934
lfemur -27.4823 34.5288 -17.7712
ltibia 56.4793
lfoot -22.6228 26.3977
ltoes 9.49643
1035
root 18.96 16.0172 -2.86437 -149.067 -70.6207 154.537
lowerback 20.1 -1.1241 1.56487
upperback 8.36693 -1.87427 0.541622
thorax -2.21897 -1.2024 0.0996647
lowerneck -3.034 20.0272 10.7499
upperneck -5.04018 26.9103 -23.4145
head 3.73891 13.2709 -6.53425
rclavicle 0 -1.59028e-015
rhumerus -18.9383 -22.7058 -14.0992
rradius 83.5518
rwrist -30.007
rhand -41.4232 36.1638
rfingers 7.12502
rthumb -14.3394 6.67904
lclavicle 0 -1.59028e-015
lhumerus -12.1614 3.84446 75.3558
lradius 70.1175
lwrist 20.896
lhand -26.7542 14.2613
lfingers 7.12502
lthumb -0.182659 44.241
rfemur -42.4227 -5.63954 10.5166
rtibia 64.7881
rfoot -24.5328 -1.39582
rtoes -15.5068
lfemur -28.6775 35.3737 -17.6072
ltibia 57.7435
lfoot -22.1721 26.1964
ltoes 7.82544
1036
root 18.9872 15.9363 -2.87342 -149.601 -70.6258 155.297
lowerback 20.3434 -1.20972 2.09896
upperback 8.54503 -1.91601 0.390845
thorax -2.16838 -1.21836 -0.350141
lowerneck -2.90073 19.977 11.1859
upperneck -5.20272 26.8239 -23.4051
head 3.71263 13.2435 -6.61152
rclavicle 5.56597e-015 -3.18055e-014
rhumerus -20.4134 -23.6425 -13.7453
rradius 83.7092
rwrist -30.1392
rhand -41.4313 35.1579
rfingers 7.12502
rthumb -14.3472 5.67366
lclavicle 5.56597e-015 -3.18055e-014
lhumerus -11.1545 3.43621 75.0242
lradius 69.8864
lwrist 21.0408
lhand -28.1066 15.3319
lfingers 7.12502
lthumb -1.48888 45.3064
rfemur -43.3022 -5.44994 10.8565
rtibia 65.8268
rfoot -25.0833 -1.19587
rtoes -13.1885
lfemur -29.6886 36.0354 -17.4353
ltibia 58.9443
lfoot -22.2386 25.906
ltoes 7.27313
1037
root 19.0216 15.8503 -2.88146 -149.272 -70.5549 155.101
lowerback 20.7206 -1.37035 2.44917
upperback 8.70417 -2.08894 0.0845727
thorax -2.21079 -1.29997 -0.827767
lowerneck -2.74989 20.0082 11.9032
upperneck -5.19567 26.8973 -23.6639
head 3.84173 13.2808 -6.75239
rclavicle 2.14687e-014 2.06736e-014
rhumerus -21.5362 -24.6584 -13.6587
rradius 83.6694
rwrist -30.1775
rhand -41.1295 34.3182
rfingers 7.12502
rthumb -14.0564 4.81353
lclavicle 2.14687e-014 2.06736e-014
lhumerus -10.3379 3.0241 74.4999
lradius 69.8066
lwrist 21.3824
lhand -28.9452 15.8485
lfingers 7.12502
lthumb -2.29877 45.8159
rfemur -44.2197 -5.26431 10.8353
rtibia 66.9188
rfoot -25.638 -1.23521
rtoes -12.0851
lfemur -30.5952 36.2827 -17.5331
ltibia 60.086
lfoot -23.2633 25.2203
ltoes 9.80985
1038
root 19.0507 15.7645 -2.88117 -148.52 -70.2676 154.504
lowerback 20.9996 -1.28508 1.80399
upperback 8.81506 -2.10238 0.470143
thorax -2.20089 -1.33668 -0.0434974
lowerneck -2.65834 20.0589 11.548
upperneck -4.95356 27.0472 -23.9811
head 3.92915 13.3548 -6.77149
rclavicle -5.08889e-014 6.04305e-014
rhumerus -21.8724 -25.3889 -12.7616
rradius 83.3867
rwrist -30.5582
rhand -41.0709 34.5266
rfingers 7.12502
rthumb -13.9999 5.01803
lclavicle -5.08889e-014 6.04305e-014
lhumerus -9.86994 3.23272 75.1617
lradius 69.8464
lwrist 21.6666
lhand -29.5914 15.1158
lfingers 7.12502
lthumb -2.92288 45.0755
rfemur -45.2228 -5.17692 10.5562
rtibia 68.0238
rfoot -26.0264 -1.30652
rtoes -12.7818
lfemur -31.5024 36.5805 -17.9702
ltibia 61.1442
lfoot -24.1122 24.6796
ltoes 11.504
1039
root 19.075 15.6874 -2.87833 -147.909 -69.7559 153.836
lowerback 21.4583 -1.27339 1.42829
upperback 8.95014 -2.18501 0.357009
thorax -2.28015 -1.39503 0.0796959
lowerneck -2.37144 20.1515 11.4119
upperneck -5.05031 27.183 -23.9289
head 3.84886 13.4536 -6.75484
rclavicle 4.53229e-014 1.27222e-014
rhumerus -22.6567 -26.0236 -12.5388
rradius 83.4046
rwrist -31.051
rhand -41.0625 34.6186
rfingers 7.12502
rthumb -13.9918 5.10945
lclavicle 4.53229e-014 1.27222e-014
lhumerus -9.57845 3.09144 74.9741
lradius 70.2394
lwrist 22.188
lhand -29.9741 14.7424
lfingers 7.12502
lthumb -3.29243 44.6967
rfemur -45.9951 -5.04439 10.1045
rtibia 69.1106
rfoot -26.4167 -1.29202
rtoes -13.4924
lfemur -32.1487 37.2958 -18.5314
ltibia 62.1651
lfoot -23.5099 25.0233
ltoes 8.40472
1040
root 19.1007 15.6165 -2.87802 -147.56 -69.3437 153.525
lowerback 21.8405 -1.32864 1.2323
upperback 9.12718 -2.32908 0.219704
thorax -2.28039 -1.48059 0.0864631
lowerneck -2.17193 20.2498 11.67
upperneck -5.1322 27.3479 -24.2824
head 3.91467 13.5496 -6.86675
rclavicle -3.81667e-014 -3.97569e-015
rhumerus -23.2597 -26.7682 -12.6249
rradius 83.4254
rwrist -31.2148
rhand -41.1705 34.828
rfingers 7.12502
rthumb -14.0959 5.32607
lclavicle -3.81667e-014 -3.97569e-015
lhumerus -9.35352 2.93383 74.5197
lradius 70.8176
lwrist 22.7847
lhand -30.4097 14.6791
lfingers 7.12502
lthumb -3.7131 44.6265
rfemur -46.8103 -4.78425 9.79507
rtibia 70.1397
rfoot -26.6841 -1.30459
rtoes -13.2208
lfemur -32.8782 38.0029 -18.9577
ltibia 63.1803
lfoot -22.9421 25.1233
ltoes 6.50493
1041
root 19.1273 15.551 -2.87767 -147.492 -69.1822 153.737
lowerback 22.0216 -1.37613 1.53034
upperback 9.32974 -2.36665 0.0647638
thorax -2.16652 -1.49957 -0.237805
lowerneck -2.2388 20.2611 12.2126
upperneck -5.06147 27.4034 -24.6462
head 4.09276 13.5607 -6.99371
rclavicle -3.18055e-014 2.46493e-014
rhumerus -24.3713 -27.7526 -12.5508
rradius 83.4838
rwrist -31.2069
rhand -41.288 35.1591
rfingers 7.12502
rthumb -14.2091 5.66508
lclavicle -3.18055e-014 2.46493e-014
lhumerus -8.84065 2.40161 74.0687
lradius 71.348
lwrist 23.2998
lhand -30.4923 14.5757
lfingers 7.12502
lthumb -3.79285 44.5217
rfemur -47.7861 -4.53071 9.83291
rtibia 71.1147
rfoot -26.9352 -1.32793
rtoes -12.4172
lfemur -33.8834 38.4443 -19.1712
ltibia 64.2216
lfoot -23.5253 24.4465
ltoes 8.94771
1042
root 19.1486 15.4846 -2.87413 -147.962 -69.1222 154.387
lowerback 22.2616 -1.43746 1.94472
upperback 9.59405 -2.4047 0.0104134
thorax -2.0128 -1.52091 -0.520442
lowerneck -2.2511 20.3199 12.4395
upperneck -5.09318 27.4928 -24.7094
head 4.14229 13.6053 -7.01514
rclavicle -1.90833e-014 -3.02153e-014
rhumerus -25.1278 -28.8599 -12.5006
rradius 83.3451
rwrist -31.3734
rhand -40.9134 35.23
rfingers 7.12502
rthumb -13.8482 5.71103
lclavicle -1.90833e-014 -3.02153e-014
lhumerus -7.98049 2.24098 73.9056
lradius 71.6437
lwrist 23.6129
lhand -29.8525 14.8825
lfingers 7.12502
lthumb -3.17503 44.8386
rfemur -48.5678 -4.30963 10.0856
rtibia 72.0461
rfoot -27.2127 -1.51925
rtoes -12.9752
lfemur -34.6835 38.853 -19.0523
ltibia 65.2635
lfoot -24.1535 23.9029
ltoes 10.2023
